<svg xmlns="http://www.w3.org/2000/svg" xmlns:xlink="http://www.w3.org/1999/xlink" width="1080" zoomAndPan="magnify" viewBox="0 0 810 809.999993" height="1080" preserveAspectRatio="xMidYMid meet" version="1.0"><defs><clipPath id="8e12eefef8"><path d="M 75.496094 81 L 729 81 L 729 734.503906 L 75.496094 734.503906 Z M 75.496094 81 " clip-rule="nonzero"/></clipPath><clipPath id="48a3f1fdc9"><path d="M 402.25 81 C 221.789062 81 75.496094 227.292969 75.496094 407.75 C 75.496094 588.210938 221.789062 734.503906 402.25 734.503906 C 582.707031 734.503906 729 588.210938 729 407.75 C 729 227.292969 582.707031 81 402.25 81 Z M 402.25 81 " clip-rule="nonzero"/></clipPath><clipPath id="059b7d46ca"><path d="M 178.5625 225.808594 L 631.5625 225.808594 L 631.5625 810 L 178.5625 810 Z M 178.5625 225.808594 " clip-rule="nonzero"/></clipPath></defs><g clip-path="url(#8e12eefef8)"><g clip-path="url(#48a3f1fdc9)"><path fill="#41a8ff" d="M 75.496094 81 L 729 81 L 729 734.503906 L 75.496094 734.503906 Z M 75.496094 81 " fill-opacity="1" fill-rule="nonzero"/></g></g><g clip-path="url(#059b7d46ca)"><path fill="#ffffff" d="M 631.433594 765.871094 C 631.433594 609.984375 529.972656 483.6875 405 483.6875 C 280.023438 483.6875 178.5625 609.984375 178.5625 765.871094 C 178.5625 790.179688 280.023438 809.996094 405 809.996094 C 529.972656 809.996094 631.433594 790.179688 631.433594 765.871094 Z M 405 225.808594 C 473.167969 225.808594 528.386719 281.03125 528.386719 349.199219 C 528.386719 417.367188 473.167969 472.589844 405 472.589844 C 336.828125 472.589844 281.609375 417.367188 281.609375 349.199219 C 281.609375 281.03125 336.828125 225.808594 405 225.808594 Z M 405 225.808594 " fill-opacity="1" fill-rule="evenodd"/></g></svg>